<?xml version="1.0" encoding="UTF-8"?>
<svg id="Layer_1" data-name="Layer 1" xmlns="http://www.w3.org/2000/svg" viewBox="0 0 24 24">
  <path d="M1.83,22.1c-.5,0-.93-.18-1.29-.54-.36-.36-.54-.79-.54-1.28V2.46c0-.5.18-.92.54-1.28.36-.36.79-.54,1.28-.54h17.82c.5,0,.92.18,1.28.54.36.36.54.79.54,1.28v11.77l-3.86,3.86-2.71-2.69-4.22,4.3,2.4,2.42H1.83ZM9.41,12.08h7.28v-1.43h-7.28v1.43ZM9.41,7.09h7.28v-1.43h-7.28v1.43ZM17.6,23.36l-3.69-3.68,1.01-1.04,2.68,2.69,5.37-5.35,1.03,1-6.4,6.38ZM5.29,12.26c.24,0,.45-.09.63-.26.17-.17.26-.38.26-.63s-.09-.45-.26-.63-.38-.26-.63-.26-.45.09-.63.26c-.17.17-.26.38-.26.63s.09.45.26.63c.17.17.38.26.63.26ZM5.29,7.26c.24,0,.45-.09.63-.26.17-.17.26-.38.26-.63s-.09-.45-.26-.63c-.17-.17-.38-.26-.63-.26s-.45.09-.63.26c-.17.17-.26.38-.26.63s.09.45.26.63c.17.17.38.26.63.26Z"/>
</svg>