<?xml version="1.0" encoding="UTF-8"?>
<svg id="Layer_1" data-name="Layer 1" xmlns="http://www.w3.org/2000/svg" viewBox="0 0 24 24">
  <path d="M8.35.77v11.21h3.1V3.1h1.11v8.84h10.2v.1h-1.86v5.32h-1.11v-5.32h-3.09v11.21h-1.05v-11.21h-1.58s-.79.02-.79.02l-.73.02v8.83h-1.11v-8.85H1.25v-.09h1.86v-5.32h1.11v5.32h3.09V.77h1.05M9.1.02h-2.55v11.21h-1.59v-5.32h-2.61v5.32H.5v1.59h10.2v8.85h2.53l.08-.08v-8.77l.79-.02h.8v11.21h2.55v-11.21h1.59v5.32h2.61v-5.32h1.86v-1.6h-10.2V2.35h-2.53l-.08.08v8.8h-1.6V.02h0Z"/>
</svg>