<?xml version="1.0" encoding="UTF-8"?>
<svg id="Layer_1" data-name="Layer 1" xmlns="http://www.w3.org/2000/svg" viewBox="0 0 24 24">
  <path d="M2.66,21.34h20.25c.24,0,.71.4.84.61.56.96-.11,2.01-1.18,2.05H2.83C1.39,24.05.13,23.19,0,21.7V1.13c.24-1.49,2.32-1.52,2.62-.05v19.99s.05.26.05.26Z"/>
  <path d="M21.29,9.34c-.04-.06-.58.55-.63.6-.98.97-1.96,1.94-2.95,2.9-1.05,1.02-1.87,2.1-3.46.94l-2.17-2.18-.14-.04-5.02,5c-1.36,1.03-3-.66-1.76-2.05.54-.61,1.26-1.2,1.84-1.79,1.11-1.12,2.26-2.45,3.43-3.49.91-.8,1.82-1.02,2.83-.22l2.25,2.25,3.85-3.87h-1.72c-.21,0-.64-.31-.77-.48-.69-.84-.19-2.05.87-2.18,1.63.11,3.43-.14,5.04,0,.66.06,1.13.59,1.19,1.23.14,1.58-.11,3.34,0,4.94-.11,1.25-1.73,1.68-2.44.65-.06-.08-.22-.43-.22-.51v-1.72Z"/>
</svg>